#N canvas 163 97 1547 927 12;
#X obj 211 115 comport 4 115200;
#X msg 240 77 ciao;
#X floatatom 103 72 5 0 0 0 - - -;
#X msg 112 174 print 144 0 80 n;
#X msg 155 41 list 144 0 80 n;
#X msg 308 179 144 9 80;
#X obj 431 252 pack 144 3 0;
#X obj 507 29 tgl 15 0 empty empty empty 17 7 0 10 -262144 -1 -1 0
1;
#X obj 431 96 random 36;
#X obj 431 121 + 36;
#X obj 507 49 metro 160;
#X obj 431 151 t b b f, f 14;
#X msg 473 178 3;
#X obj 589 137 t b b, f 6;
#X msg 585 200 15;
#X obj 589 80 delay 50;
#X floatatom 646 17 5 0 0 0 - - -;
#X obj 646 41 / 4;
#X obj 395 527 pack 144 3 0;
#X obj 412 472 t b b f;
#X obj 114 293 bng 15 250 50 0 empty empty empty 17 7 0 10 -262144
-1 -1;
#X obj 116 355 pack 145 15 0;
#X obj 412 324 tgl 15 0 empty empty empty 17 7 0 10 -262144 -1 -1 0
1;
#X obj 412 344 metro 2000;
#X floatatom 670 119 5 0 0 0 - - -;
#X obj 670 94 vs.counter 0 3;
#X obj 670 143 sel 0;
#X obj 670 202 * 50;
#X floatatom 670 227 5 0 0 0 - - -;
#X obj 670 177 vs.counter 1 10 1;
#X floatatom 558 339 5 0 0 0 - - -;
#X obj 561 470 t b b f;
#X obj 544 525 pack 145 3 0;
#X obj 223 537 t b b f;
#X obj 206 592 pack 146 3 0;
#X obj 382 589 vs.line;
#X obj 223 512 vs.line 0 500;
#X obj 412 447 vs.line 0 500;
#X obj 561 445 vs.line 0 500;
#X msg 223 485 24 \, 96 1999;
#X msg 412 420 24 \, 96 2001;
#X msg 561 418 24 \, 96 2000;
#X obj 726 628 pack 144 3 0;
#X obj 823 628 pack 145 3 0;
#X obj 604 665 pack 146 3 0;
#X obj 892 728 s sn;
#X obj 307 59 r sn;
#X obj 634 627 t b f;
#X floatatom 596 596 5 0 0 0 - - -;
#X obj 726 588 t b f;
#X obj 822 589 t b f;
#X obj 725 548 + 7;
#X floatatom 794 433 5 0 0 0 - - -;
#X obj 815 546 + 15;
#X obj 354 672 bng 15 250 50 0 empty empty empty 17 7 0 10 -262144
-1 -1;
#X obj 307 721 pack 147 15 0;
#X obj 876 270 line 0 1;
#X obj 876 295 int;
#X obj 876 320 change;
#X obj 869 411 pack 144 3 60;
#X obj 876 345 t b f;
#X obj 949 92 tgl 15 0 empty empty empty 17 7 0 10 -262144 -1 -1 0
1;
#X obj 949 137 t b b;
#X obj 949 112 metro 50;
#X floatatom 1012 64 5 0 0 0 - - -;
#X msg 874 226 0 \, 15 200;
#X obj 1348 20 array define seq 7;
#X obj 1350 132 array set seq;
#X msg 1360 81 0 2 4 5 7 9 11;
#X obj 993 189 random 22;
#X obj 993 214 t f f;
#X obj 993 239 % 7;
#X obj 1077 238 div 7;
#X obj 1077 263 * 12;
#X obj 993 264 tabread seq;
#X obj 1018 300 +;
#X obj 1018 325 + 36;
#X obj 1155 273 line 0 1;
#X obj 1155 298 int;
#X obj 1155 323 change;
#X obj 1155 348 t b f;
#X msg 1153 229 0 \, 15 200;
#X obj 1272 192 random 22;
#X obj 1272 217 t f f;
#X obj 1272 242 % 7;
#X obj 1356 241 div 7;
#X obj 1356 266 * 12;
#X obj 1272 267 tabread seq;
#X obj 1297 303 +;
#X obj 1297 328 + 36;
#X obj 1148 414 pack 145 3 60;
#X floatatom 911 502 5 0 0 0 - - -;
#X floatatom 828 469 5 0 0 0 - - -;
#X obj 1075 550 tgl 15 0 empty empty empty 17 7 0 10 -262144 -1 -1
1 1;
#X obj 1075 602 tgl 15 0 empty empty empty 17 7 0 10 -262144 -1 -1
1 1;
#X obj 1075 622 * 3;
#X obj 1077 793 + 48;
#X obj 1075 570 metro 500;
#X obj 1161 612 delay 250;
#X obj 1161 651 tgl 15 0 empty empty empty 17 7 0 10 -262144 -1 -1
0 1;
#X obj 1163 789 + 51;
#X obj 1161 671 * 4;
#X obj 1264 656 tgl 15 0 empty empty empty 17 7 0 10 -262144 -1 -1
0 1;
#X obj 1264 617 delay 400;
#X obj 1264 701 + 55;
#X obj 1264 676 * 5;
#X msg 1019 848 \$1 \, 250;
#X obj 1019 873 line;
#X connect 1 0 0 0;
#X connect 2 0 0 0;
#X connect 3 0 0 0;
#X connect 4 0 0 0;
#X connect 5 0 0 0;
#X connect 6 0 0 0;
#X connect 7 0 10 0;
#X connect 8 0 9 0;
#X connect 9 0 11 0;
#X connect 10 0 8 0;
#X connect 10 0 15 0;
#X connect 11 0 6 0;
#X connect 11 1 12 0;
#X connect 11 2 6 2;
#X connect 12 0 6 1;
#X connect 13 0 6 0;
#X connect 13 1 14 0;
#X connect 14 0 6 1;
#X connect 15 0 13 0;
#X connect 16 0 10 1;
#X connect 16 0 17 0;
#X connect 17 0 15 1;
#X connect 19 0 18 0;
#X connect 19 1 18 1;
#X connect 19 2 18 2;
#X connect 20 0 21 0;
#X connect 21 0 0 0;
#X connect 22 0 23 0;
#X connect 24 0 26 0;
#X connect 25 0 24 0;
#X connect 26 0 29 0;
#X connect 27 0 28 0;
#X connect 29 0 27 0;
#X connect 30 0 36 2;
#X connect 30 0 37 2;
#X connect 30 0 38 2;
#X connect 31 0 32 0;
#X connect 31 1 32 1;
#X connect 31 2 32 2;
#X connect 33 0 34 0;
#X connect 33 1 34 1;
#X connect 33 2 34 2;
#X connect 36 0 33 0;
#X connect 37 0 19 0;
#X connect 38 0 31 0;
#X connect 39 0 36 0;
#X connect 40 0 37 0;
#X connect 41 0 38 0;
#X connect 42 0 45 0;
#X connect 43 0 45 0;
#X connect 44 0 45 0;
#X connect 46 0 0 0;
#X connect 47 0 44 0;
#X connect 47 1 44 2;
#X connect 48 0 47 0;
#X connect 49 0 42 0;
#X connect 49 1 42 2;
#X connect 50 0 43 0;
#X connect 50 1 43 2;
#X connect 51 0 49 0;
#X connect 52 0 44 1;
#X connect 52 0 42 1;
#X connect 52 0 43 1;
#X connect 53 0 50 0;
#X connect 54 0 55 0;
#X connect 55 0 0 0;
#X connect 56 0 57 0;
#X connect 57 0 58 0;
#X connect 58 0 60 0;
#X connect 59 0 45 0;
#X connect 60 0 59 0;
#X connect 60 1 59 1;
#X connect 61 0 63 0;
#X connect 62 0 65 0;
#X connect 62 0 81 0;
#X connect 62 1 69 0;
#X connect 62 1 82 0;
#X connect 63 0 62 0;
#X connect 64 0 63 1;
#X connect 65 0 56 0;
#X connect 68 0 67 0;
#X connect 69 0 70 0;
#X connect 70 0 71 0;
#X connect 70 1 72 0;
#X connect 71 0 74 0;
#X connect 72 0 73 0;
#X connect 73 0 75 1;
#X connect 74 0 75 0;
#X connect 75 0 76 0;
#X connect 76 0 59 2;
#X connect 77 0 78 0;
#X connect 78 0 79 0;
#X connect 79 0 80 0;
#X connect 80 0 90 0;
#X connect 80 1 90 1;
#X connect 81 0 77 0;
#X connect 82 0 83 0;
#X connect 83 0 84 0;
#X connect 83 1 85 0;
#X connect 84 0 87 0;
#X connect 85 0 86 0;
#X connect 86 0 88 1;
#X connect 87 0 88 0;
#X connect 88 0 89 0;
#X connect 89 0 90 2;
#X connect 90 0 45 0;
#X connect 91 0 50 0;
#X connect 92 0 49 0;
#X connect 93 0 97 0;
#X connect 94 0 95 0;
#X connect 95 0 96 0;
#X connect 96 0 106 0;
#X connect 96 0 47 0;
#X connect 97 0 94 0;
#X connect 97 0 98 0;
#X connect 97 0 103 0;
#X connect 98 0 99 0;
#X connect 99 0 101 0;
#X connect 100 0 49 0;
#X connect 101 0 100 0;
#X connect 102 0 105 0;
#X connect 103 0 102 0;
#X connect 104 0 50 0;
#X connect 105 0 104 0;
#X connect 106 0 107 0;
